<svg xmlns="http://www.w3.org/2000/svg" xmlns:xlink="http://www.w3.org/1999/xlink" width="500" zoomAndPan="magnify" viewBox="0 0 375 374.999991" height="500" preserveAspectRatio="xMidYMid meet" version="1.0"><defs><g/><clipPath id="id1"><path d="M 131.714844 35.496094 L 299.714844 35.496094 L 299.714844 238.746094 L 131.714844 238.746094 Z M 131.714844 35.496094 " clip-rule="nonzero"/></clipPath><clipPath id="id2"><path d="M 0 0 L 374.699219 0 L 374.699219 374.699219 L 0 374.699219 Z M 0 0 " clip-rule="nonzero"/></clipPath></defs><rect x="-37.5" width="450" fill="#ffffff" y="-37.499999" height="449.999989" fill-opacity="1"/><rect x="-37.5" width="450" fill="#ffffff" y="-37.499999" height="449.999989" fill-opacity="1"/><rect x="-37.5" width="450" fill="#ffffff" y="-37.499999" height="449.999989" fill-opacity="1"/><rect x="-37.5" width="450" fill="#ffffff" y="-37.499999" height="449.999989" fill-opacity="1"/><g clip-path="url(#id1)"><path fill="#fac2c2" d="M 239.203125 87.8125 C 250.179688 104.238281 241.953125 120.640625 239.203125 126.859375 C 236.453125 133.082031 228.226562 145.0625 229.144531 150.824219 C 230.0625 156.589844 231.4375 201.425781 228.226562 217.851562 C 225.019531 234.277344 218.167969 238.773438 214.042969 238.585938 C 205.0625 238.128906 207.410156 200.699219 204.445312 187.691406 C 203.445312 183.355469 200.558594 175.816406 198.027344 172.394531 C 195.652344 169.164062 191.339844 167.738281 187.183594 168.035156 C 189.207031 162.917969 192.121094 158.824219 198.160156 156.75 C 176.265625 162.082031 172.488281 183.273438 171.25 188.042969 C 168.121094 200.023438 168.523438 236.863281 162.027344 237.617188 C 157.925781 238.074219 151.429688 234.304688 148.246094 217.90625 C 145.035156 201.476562 146.414062 156.640625 147.328125 150.878906 C 148.246094 145.117188 140.019531 133.132812 137.269531 126.914062 C 134.519531 120.691406 126.296875 104.292969 137.269531 87.867188 C 148.246094 71.441406 166.988281 74.105469 166.988281 74.105469 C 166.988281 74.105469 166.988281 74.105469 178.421875 76.773438 C 181.523438 77.5 184.921875 77.851562 188.238281 78.011719 C 191.554688 77.875 194.953125 77.5 198.050781 76.773438 C 198.484375 76.664062 198.863281 76.585938 199.238281 76.503906 C 193.710938 78.953125 187.804688 82.183594 182.007812 83.800781 C 174.484375 85.902344 166.234375 86.359375 158.464844 86.492188 C 185 93.84375 206.4375 76.503906 227.6875 77.554688 C 231.761719 79.574219 235.832031 82.804688 239.203125 87.8125 Z M 266.304688 102.382812 C 268.246094 72.519531 269.808594 70.957031 299.714844 69.015625 C 269.808594 67.078125 268.246094 65.515625 266.304688 35.652344 C 264.363281 65.515625 262.796875 67.078125 232.894531 69.015625 C 262.796875 70.957031 264.363281 72.519531 266.304688 102.382812 Z M 264.039062 112.964844 C 263.175781 126.320312 262.476562 127.019531 249.101562 127.882812 C 262.476562 128.746094 263.175781 129.445312 264.039062 142.800781 C 264.902344 129.445312 265.601562 128.746094 279.003906 127.882812 C 265.601562 127.046875 264.902344 126.347656 264.039062 112.964844 Z M 264.039062 112.964844 " fill-opacity="1" fill-rule="nonzero"/></g><g clip-path="url(#id2)"><path fill="#fac2c2" d="M 187.351562 374.699219 C 137.332031 374.699219 90.230469 355.230469 54.886719 319.8125 C 19.46875 284.46875 0 237.371094 0 187.351562 C 0 137.332031 19.46875 90.230469 54.886719 54.886719 C 90.230469 19.46875 137.332031 0 187.351562 0 C 237.371094 0 284.46875 19.46875 319.8125 54.886719 C 355.230469 90.304688 374.699219 137.332031 374.699219 187.351562 C 374.699219 237.371094 355.230469 284.46875 319.8125 319.8125 C 284.46875 355.230469 237.371094 374.699219 187.351562 374.699219 Z M 187.351562 11.230469 C 140.324219 11.230469 96.070312 29.578125 62.824219 62.824219 C 29.578125 96.070312 11.230469 140.324219 11.230469 187.351562 C 11.230469 234.375 29.578125 278.628906 62.824219 311.875 C 96.070312 345.121094 140.324219 363.46875 187.351562 363.46875 C 234.375 363.46875 278.628906 345.121094 311.875 311.875 C 345.121094 278.628906 363.46875 234.375 363.46875 187.351562 C 363.46875 140.324219 345.121094 96.070312 311.875 62.824219 C 278.628906 29.578125 234.375 11.230469 187.351562 11.230469 Z M 187.351562 11.230469 " fill-opacity="1" fill-rule="nonzero"/></g><g fill="#545454" fill-opacity="1"><g transform="translate(110.356172, 294.421865)"><g><path d="M 3.703125 -27.546875 L 15.75 -27.546875 C 18.6875 -27.546875 21.296875 -26.972656 23.578125 -25.828125 C 25.859375 -24.691406 27.628906 -23.082031 28.890625 -21 C 30.148438 -18.914062 30.78125 -16.507812 30.78125 -13.78125 C 30.78125 -11.050781 30.148438 -8.640625 28.890625 -6.546875 C 27.628906 -4.460938 25.859375 -2.847656 23.578125 -1.703125 C 21.296875 -0.566406 18.6875 0 15.75 0 L 3.703125 0 Z M 15.5 -4.328125 C 17.519531 -4.328125 19.296875 -4.710938 20.828125 -5.484375 C 22.367188 -6.265625 23.550781 -7.367188 24.375 -8.796875 C 25.207031 -10.222656 25.625 -11.882812 25.625 -13.78125 C 25.625 -15.664062 25.207031 -17.320312 24.375 -18.75 C 23.550781 -20.1875 22.367188 -21.289062 20.828125 -22.0625 C 19.296875 -22.832031 17.519531 -23.21875 15.5 -23.21875 L 8.8125 -23.21875 L 8.8125 -4.328125 Z M 15.5 -4.328125 "/></g></g></g><g fill="#545454" fill-opacity="1"><g transform="translate(142.861084, 294.421865)"><g><path d="M 24.359375 -4.296875 L 24.359375 0 L 3.703125 0 L 3.703125 -27.546875 L 23.8125 -27.546875 L 23.8125 -23.265625 L 8.8125 -23.265625 L 8.8125 -16.09375 L 22.125 -16.09375 L 22.125 -11.890625 L 8.8125 -11.890625 L 8.8125 -4.296875 Z M 24.359375 -4.296875 "/></g></g></g><g fill="#545454" fill-opacity="1"><g transform="translate(169.227057, 294.421865)"><g><path d="M 28.1875 -27.546875 L 28.1875 0 L 23.96875 0 L 8.78125 -18.65625 L 8.78125 0 L 3.703125 0 L 3.703125 -27.546875 L 7.90625 -27.546875 L 23.109375 -8.890625 L 23.109375 -27.546875 Z M 28.1875 -27.546875 "/></g></g></g><g fill="#545454" fill-opacity="1"><g transform="translate(201.102333, 294.421865)"><g><path d="M 9.28125 -23.21875 L 0.15625 -23.21875 L 0.15625 -27.546875 L 23.53125 -27.546875 L 23.53125 -23.21875 L 14.40625 -23.21875 L 14.40625 0 L 9.28125 0 Z M 9.28125 -23.21875 "/></g></g></g><g fill="#545454" fill-opacity="1"><g transform="translate(224.792352, 294.421865)"><g><path d="M 3.703125 -27.546875 L 8.8125 -27.546875 L 8.8125 0 L 3.703125 0 Z M 3.703125 -27.546875 "/></g></g></g><g fill="#545454" fill-opacity="1"><g transform="translate(237.34571, 294.421865)"><g><path d="M 21.0625 0 L 13.578125 -10.46875 L 6.171875 0 L 0.359375 0 L 10.59375 -14.046875 L 0.90625 -27.546875 L 6.6875 -27.546875 L 13.734375 -17.75 L 20.703125 -27.546875 L 26.25 -27.546875 L 16.609375 -14.25 L 26.96875 0 Z M 21.0625 0 "/></g></g></g><g fill="#737373" fill-opacity="1"><g transform="translate(144.978747, 317.653261)"><g><path d="M 5.890625 0.140625 C 4.890625 0.140625 3.988281 -0.078125 3.1875 -0.515625 C 2.382812 -0.953125 1.753906 -1.554688 1.296875 -2.328125 C 0.847656 -3.097656 0.625 -3.96875 0.625 -4.9375 C 0.625 -5.90625 0.851562 -6.773438 1.3125 -7.546875 C 1.769531 -8.316406 2.398438 -8.914062 3.203125 -9.34375 C 4.003906 -9.78125 4.90625 -10 5.90625 -10 C 6.71875 -10 7.457031 -9.859375 8.125 -9.578125 C 8.789062 -9.296875 9.351562 -8.890625 9.8125 -8.359375 L 8.625 -7.25 C 7.90625 -8.019531 7.023438 -8.40625 5.984375 -8.40625 C 5.304688 -8.40625 4.703125 -8.253906 4.171875 -7.953125 C 3.640625 -7.660156 3.222656 -7.25 2.921875 -6.71875 C 2.617188 -6.195312 2.46875 -5.601562 2.46875 -4.9375 C 2.46875 -4.269531 2.617188 -3.671875 2.921875 -3.140625 C 3.222656 -2.617188 3.640625 -2.207031 4.171875 -1.90625 C 4.703125 -1.613281 5.304688 -1.46875 5.984375 -1.46875 C 7.023438 -1.46875 7.90625 -1.859375 8.625 -2.640625 L 9.8125 -1.515625 C 9.351562 -0.972656 8.785156 -0.5625 8.109375 -0.28125 C 7.441406 0 6.703125 0.140625 5.890625 0.140625 Z M 5.890625 0.140625 "/></g></g></g><g fill="#737373" fill-opacity="1"><g transform="translate(159.411317, 317.653261)"><g><path d="M 1.328125 -9.859375 L 3.15625 -9.859375 L 3.15625 -1.546875 L 8.3125 -1.546875 L 8.3125 0 L 1.328125 0 Z M 1.328125 -9.859375 "/></g></g></g><g fill="#737373" fill-opacity="1"><g transform="translate(172.040023, 317.653261)"><g><path d="M 1.328125 -9.859375 L 3.15625 -9.859375 L 3.15625 0 L 1.328125 0 Z M 2.953125 -12.59375 L 5.03125 -12.59375 L 2.578125 -10.671875 L 1.0625 -10.671875 Z M 2.953125 -12.59375 "/></g></g></g><g fill="#737373" fill-opacity="1"><g transform="translate(180.72278, 317.653261)"><g><path d="M 10.09375 -9.859375 L 10.09375 0 L 8.578125 0 L 3.140625 -6.6875 L 3.140625 0 L 1.328125 0 L 1.328125 -9.859375 L 2.828125 -9.859375 L 8.265625 -3.1875 L 8.265625 -9.859375 Z M 10.09375 -9.859375 "/></g></g></g><g fill="#737373" fill-opacity="1"><g transform="translate(196.325044, 317.653261)"><g><path d="M 1.328125 -9.859375 L 3.15625 -9.859375 L 3.15625 0 L 1.328125 0 Z M 1.328125 -9.859375 "/></g></g></g><g fill="#737373" fill-opacity="1"><g transform="translate(205.007799, 317.653261)"><g><path d="M 5.890625 0.140625 C 4.890625 0.140625 3.988281 -0.078125 3.1875 -0.515625 C 2.382812 -0.953125 1.753906 -1.554688 1.296875 -2.328125 C 0.847656 -3.097656 0.625 -3.96875 0.625 -4.9375 C 0.625 -5.90625 0.851562 -6.773438 1.3125 -7.546875 C 1.769531 -8.316406 2.398438 -8.914062 3.203125 -9.34375 C 4.003906 -9.78125 4.90625 -10 5.90625 -10 C 6.71875 -10 7.457031 -9.859375 8.125 -9.578125 C 8.789062 -9.296875 9.351562 -8.890625 9.8125 -8.359375 L 8.625 -7.25 C 7.90625 -8.019531 7.023438 -8.40625 5.984375 -8.40625 C 5.304688 -8.40625 4.703125 -8.253906 4.171875 -7.953125 C 3.640625 -7.660156 3.222656 -7.25 2.921875 -6.71875 C 2.617188 -6.195312 2.46875 -5.601562 2.46875 -4.9375 C 2.46875 -4.269531 2.617188 -3.671875 2.921875 -3.140625 C 3.222656 -2.617188 3.640625 -2.207031 4.171875 -1.90625 C 4.703125 -1.613281 5.304688 -1.46875 5.984375 -1.46875 C 7.023438 -1.46875 7.90625 -1.859375 8.625 -2.640625 L 9.8125 -1.515625 C 9.351562 -0.972656 8.785156 -0.5625 8.109375 -0.28125 C 7.441406 0 6.703125 0.140625 5.890625 0.140625 Z M 5.890625 0.140625 "/></g></g></g><g fill="#737373" fill-opacity="1"><g transform="translate(219.440372, 317.653261)"><g><path d="M 7.71875 -2.28125 L 2.796875 -2.28125 L 1.8125 0 L -0.078125 0 L 4.375 -9.859375 L 6.171875 -9.859375 L 10.625 0 L 8.703125 0 Z M 7.125 -3.71875 L 5.25 -8.03125 L 3.40625 -3.71875 Z M 7.125 -3.71875 "/></g></g></g><g fill="#737373" fill-opacity="1"><g transform="translate(102.650954, 336.685898)"><g><path d="M 5.9375 0.140625 C 4.925781 0.140625 4.015625 -0.078125 3.203125 -0.515625 C 2.398438 -0.953125 1.769531 -1.554688 1.3125 -2.328125 C 0.851562 -3.109375 0.625 -3.976562 0.625 -4.9375 C 0.625 -5.894531 0.851562 -6.757812 1.3125 -7.53125 C 1.769531 -8.3125 2.398438 -8.914062 3.203125 -9.34375 C 4.015625 -9.78125 4.925781 -10 5.9375 -10 C 6.9375 -10 7.835938 -9.78125 8.640625 -9.34375 C 9.453125 -8.914062 10.085938 -8.316406 10.546875 -7.546875 C 11.015625 -6.773438 11.25 -5.90625 11.25 -4.9375 C 11.25 -3.96875 11.015625 -3.097656 10.546875 -2.328125 C 10.085938 -1.554688 9.453125 -0.953125 8.640625 -0.515625 C 7.835938 -0.078125 6.9375 0.140625 5.9375 0.140625 Z M 5.9375 -1.46875 C 6.59375 -1.46875 7.179688 -1.613281 7.703125 -1.90625 C 8.234375 -2.207031 8.648438 -2.625 8.953125 -3.15625 C 9.253906 -3.6875 9.40625 -4.28125 9.40625 -4.9375 C 9.40625 -5.59375 9.253906 -6.1875 8.953125 -6.71875 C 8.648438 -7.25 8.234375 -7.660156 7.703125 -7.953125 C 7.179688 -8.253906 6.59375 -8.40625 5.9375 -8.40625 C 5.28125 -8.40625 4.6875 -8.253906 4.15625 -7.953125 C 3.632812 -7.660156 3.222656 -7.25 2.921875 -6.71875 C 2.617188 -6.1875 2.46875 -5.59375 2.46875 -4.9375 C 2.46875 -4.28125 2.617188 -3.6875 2.921875 -3.15625 C 3.222656 -2.625 3.632812 -2.207031 4.15625 -1.90625 C 4.6875 -1.613281 5.28125 -1.46875 5.9375 -1.46875 Z M 5.9375 -1.46875 "/></g></g></g><g fill="#737373" fill-opacity="1"><g transform="translate(118.704185, 336.685898)"><g><path d="M 1.328125 -9.859375 L 5.640625 -9.859375 C 6.691406 -9.859375 7.625 -9.65625 8.4375 -9.25 C 9.257812 -8.84375 9.894531 -8.265625 10.34375 -7.515625 C 10.789062 -6.773438 11.015625 -5.914062 11.015625 -4.9375 C 11.015625 -3.957031 10.789062 -3.09375 10.34375 -2.34375 C 9.894531 -1.59375 9.257812 -1.015625 8.4375 -0.609375 C 7.625 -0.203125 6.691406 0 5.640625 0 L 1.328125 0 Z M 5.546875 -1.546875 C 6.273438 -1.546875 6.910156 -1.679688 7.453125 -1.953125 C 8.003906 -2.234375 8.425781 -2.628906 8.71875 -3.140625 C 9.019531 -3.660156 9.171875 -4.257812 9.171875 -4.9375 C 9.171875 -5.613281 9.019531 -6.207031 8.71875 -6.71875 C 8.425781 -7.226562 8.003906 -7.617188 7.453125 -7.890625 C 6.910156 -8.171875 6.273438 -8.3125 5.546875 -8.3125 L 3.15625 -8.3125 L 3.15625 -1.546875 Z M 5.546875 -1.546875 "/></g></g></g><g fill="#737373" fill-opacity="1"><g transform="translate(134.531924, 336.685898)"><g><path d="M 5.9375 0.140625 C 4.925781 0.140625 4.015625 -0.078125 3.203125 -0.515625 C 2.398438 -0.953125 1.769531 -1.554688 1.3125 -2.328125 C 0.851562 -3.109375 0.625 -3.976562 0.625 -4.9375 C 0.625 -5.894531 0.851562 -6.757812 1.3125 -7.53125 C 1.769531 -8.3125 2.398438 -8.914062 3.203125 -9.34375 C 4.015625 -9.78125 4.925781 -10 5.9375 -10 C 6.9375 -10 7.835938 -9.78125 8.640625 -9.34375 C 9.453125 -8.914062 10.085938 -8.316406 10.546875 -7.546875 C 11.015625 -6.773438 11.25 -5.90625 11.25 -4.9375 C 11.25 -3.96875 11.015625 -3.097656 10.546875 -2.328125 C 10.085938 -1.554688 9.453125 -0.953125 8.640625 -0.515625 C 7.835938 -0.078125 6.9375 0.140625 5.9375 0.140625 Z M 5.9375 -1.46875 C 6.59375 -1.46875 7.179688 -1.613281 7.703125 -1.90625 C 8.234375 -2.207031 8.648438 -2.625 8.953125 -3.15625 C 9.253906 -3.6875 9.40625 -4.28125 9.40625 -4.9375 C 9.40625 -5.59375 9.253906 -6.1875 8.953125 -6.71875 C 8.648438 -7.25 8.234375 -7.660156 7.703125 -7.953125 C 7.179688 -8.253906 6.59375 -8.40625 5.9375 -8.40625 C 5.28125 -8.40625 4.6875 -8.253906 4.15625 -7.953125 C 3.632812 -7.660156 3.222656 -7.25 2.921875 -6.71875 C 2.617188 -6.1875 2.46875 -5.59375 2.46875 -4.9375 C 2.46875 -4.28125 2.617188 -3.6875 2.921875 -3.15625 C 3.222656 -2.625 3.632812 -2.207031 4.15625 -1.90625 C 4.6875 -1.613281 5.28125 -1.46875 5.9375 -1.46875 Z M 5.9375 -1.46875 "/></g></g></g><g fill="#737373" fill-opacity="1"><g transform="translate(150.585157, 336.685898)"><g><path d="M 10.09375 -9.859375 L 10.09375 0 L 8.578125 0 L 3.140625 -6.6875 L 3.140625 0 L 1.328125 0 L 1.328125 -9.859375 L 2.828125 -9.859375 L 8.265625 -3.1875 L 8.265625 -9.859375 Z M 10.09375 -9.859375 "/></g></g></g><g fill="#737373" fill-opacity="1"><g transform="translate(166.18742, 336.685898)"><g><path d="M 3.328125 -8.3125 L 0.0625 -8.3125 L 0.0625 -9.859375 L 8.421875 -9.859375 L 8.421875 -8.3125 L 5.15625 -8.3125 L 5.15625 0 L 3.328125 0 Z M 3.328125 -8.3125 "/></g></g></g><g fill="#737373" fill-opacity="1"><g transform="translate(178.8584, 336.685898)"><g><path d="M 5.9375 0.140625 C 4.925781 0.140625 4.015625 -0.078125 3.203125 -0.515625 C 2.398438 -0.953125 1.769531 -1.554688 1.3125 -2.328125 C 0.851562 -3.109375 0.625 -3.976562 0.625 -4.9375 C 0.625 -5.894531 0.851562 -6.757812 1.3125 -7.53125 C 1.769531 -8.3125 2.398438 -8.914062 3.203125 -9.34375 C 4.015625 -9.78125 4.925781 -10 5.9375 -10 C 6.9375 -10 7.835938 -9.78125 8.640625 -9.34375 C 9.453125 -8.914062 10.085938 -8.316406 10.546875 -7.546875 C 11.015625 -6.773438 11.25 -5.90625 11.25 -4.9375 C 11.25 -3.96875 11.015625 -3.097656 10.546875 -2.328125 C 10.085938 -1.554688 9.453125 -0.953125 8.640625 -0.515625 C 7.835938 -0.078125 6.9375 0.140625 5.9375 0.140625 Z M 5.9375 -1.46875 C 6.59375 -1.46875 7.179688 -1.613281 7.703125 -1.90625 C 8.234375 -2.207031 8.648438 -2.625 8.953125 -3.15625 C 9.253906 -3.6875 9.40625 -4.28125 9.40625 -4.9375 C 9.40625 -5.59375 9.253906 -6.1875 8.953125 -6.71875 C 8.648438 -7.25 8.234375 -7.660156 7.703125 -7.953125 C 7.179688 -8.253906 6.59375 -8.40625 5.9375 -8.40625 C 5.28125 -8.40625 4.6875 -8.253906 4.15625 -7.953125 C 3.632812 -7.660156 3.222656 -7.25 2.921875 -6.71875 C 2.617188 -6.1875 2.46875 -5.59375 2.46875 -4.9375 C 2.46875 -4.28125 2.617188 -3.6875 2.921875 -3.15625 C 3.222656 -2.625 3.632812 -2.207031 4.15625 -1.90625 C 4.6875 -1.613281 5.28125 -1.46875 5.9375 -1.46875 Z M 5.9375 -1.46875 "/></g></g></g><g fill="#737373" fill-opacity="1"><g transform="translate(194.91163, 336.685898)"><g><path d="M 1.328125 -9.859375 L 3.15625 -9.859375 L 3.15625 -1.546875 L 8.3125 -1.546875 L 8.3125 0 L 1.328125 0 Z M 1.328125 -9.859375 "/></g></g></g><g fill="#737373" fill-opacity="1"><g transform="translate(207.540335, 336.685898)"><g><path d="M 5.9375 0.140625 C 4.925781 0.140625 4.015625 -0.078125 3.203125 -0.515625 C 2.398438 -0.953125 1.769531 -1.554688 1.3125 -2.328125 C 0.851562 -3.109375 0.625 -3.976562 0.625 -4.9375 C 0.625 -5.894531 0.851562 -6.757812 1.3125 -7.53125 C 1.769531 -8.3125 2.398438 -8.914062 3.203125 -9.34375 C 4.015625 -9.78125 4.925781 -10 5.9375 -10 C 6.9375 -10 7.835938 -9.78125 8.640625 -9.34375 C 9.453125 -8.914062 10.085938 -8.316406 10.546875 -7.546875 C 11.015625 -6.773438 11.25 -5.90625 11.25 -4.9375 C 11.25 -3.96875 11.015625 -3.097656 10.546875 -2.328125 C 10.085938 -1.554688 9.453125 -0.953125 8.640625 -0.515625 C 7.835938 -0.078125 6.9375 0.140625 5.9375 0.140625 Z M 5.9375 -1.46875 C 6.59375 -1.46875 7.179688 -1.613281 7.703125 -1.90625 C 8.234375 -2.207031 8.648438 -2.625 8.953125 -3.15625 C 9.253906 -3.6875 9.40625 -4.28125 9.40625 -4.9375 C 9.40625 -5.59375 9.253906 -6.1875 8.953125 -6.71875 C 8.648438 -7.25 8.234375 -7.660156 7.703125 -7.953125 C 7.179688 -8.253906 6.59375 -8.40625 5.9375 -8.40625 C 5.28125 -8.40625 4.6875 -8.253906 4.15625 -7.953125 C 3.632812 -7.660156 3.222656 -7.25 2.921875 -6.71875 C 2.617188 -6.1875 2.46875 -5.59375 2.46875 -4.9375 C 2.46875 -4.28125 2.617188 -3.6875 2.921875 -3.15625 C 3.222656 -2.625 3.632812 -2.207031 4.15625 -1.90625 C 4.6875 -1.613281 5.28125 -1.46875 5.9375 -1.46875 Z M 6.640625 -12.59375 L 8.71875 -12.59375 L 6.265625 -10.671875 L 4.75 -10.671875 Z M 6.640625 -12.59375 "/></g></g></g><g fill="#737373" fill-opacity="1"><g transform="translate(223.593565, 336.685898)"><g><path d="M 8.0625 -5.046875 L 9.796875 -5.046875 L 9.796875 -1.109375 C 9.285156 -0.703125 8.691406 -0.390625 8.015625 -0.171875 C 7.335938 0.0351562 6.644531 0.140625 5.9375 0.140625 C 4.925781 0.140625 4.015625 -0.078125 3.203125 -0.515625 C 2.398438 -0.953125 1.769531 -1.554688 1.3125 -2.328125 C 0.851562 -3.097656 0.625 -3.96875 0.625 -4.9375 C 0.625 -5.90625 0.851562 -6.773438 1.3125 -7.546875 C 1.769531 -8.316406 2.40625 -8.914062 3.21875 -9.34375 C 4.03125 -9.78125 4.945312 -10 5.96875 -10 C 6.789062 -10 7.539062 -9.863281 8.21875 -9.59375 C 8.894531 -9.320312 9.460938 -8.925781 9.921875 -8.40625 L 8.765625 -7.265625 C 8.015625 -8.023438 7.109375 -8.40625 6.046875 -8.40625 C 5.347656 -8.40625 4.726562 -8.257812 4.1875 -7.96875 C 3.644531 -7.675781 3.222656 -7.265625 2.921875 -6.734375 C 2.617188 -6.210938 2.46875 -5.613281 2.46875 -4.9375 C 2.46875 -4.28125 2.617188 -3.6875 2.921875 -3.15625 C 3.222656 -2.632812 3.644531 -2.222656 4.1875 -1.921875 C 4.726562 -1.617188 5.34375 -1.46875 6.03125 -1.46875 C 6.800781 -1.46875 7.476562 -1.632812 8.0625 -1.96875 Z M 8.0625 -5.046875 "/></g></g></g><g fill="#737373" fill-opacity="1"><g transform="translate(238.660304, 336.685898)"><g><path d="M 1.328125 -9.859375 L 3.15625 -9.859375 L 3.15625 0 L 1.328125 0 Z M 1.328125 -9.859375 "/></g></g></g><g fill="#737373" fill-opacity="1"><g transform="translate(247.343067, 336.685898)"><g><path d="M 5.890625 0.140625 C 4.890625 0.140625 3.988281 -0.078125 3.1875 -0.515625 C 2.382812 -0.953125 1.753906 -1.554688 1.296875 -2.328125 C 0.847656 -3.097656 0.625 -3.96875 0.625 -4.9375 C 0.625 -5.90625 0.851562 -6.773438 1.3125 -7.546875 C 1.769531 -8.316406 2.398438 -8.914062 3.203125 -9.34375 C 4.003906 -9.78125 4.90625 -10 5.90625 -10 C 6.71875 -10 7.457031 -9.859375 8.125 -9.578125 C 8.789062 -9.296875 9.351562 -8.890625 9.8125 -8.359375 L 8.625 -7.25 C 7.90625 -8.019531 7.023438 -8.40625 5.984375 -8.40625 C 5.304688 -8.40625 4.703125 -8.253906 4.171875 -7.953125 C 3.640625 -7.660156 3.222656 -7.25 2.921875 -6.71875 C 2.617188 -6.195312 2.46875 -5.601562 2.46875 -4.9375 C 2.46875 -4.269531 2.617188 -3.671875 2.921875 -3.140625 C 3.222656 -2.617188 3.640625 -2.207031 4.171875 -1.90625 C 4.703125 -1.613281 5.304688 -1.46875 5.984375 -1.46875 C 7.023438 -1.46875 7.90625 -1.859375 8.625 -2.640625 L 9.8125 -1.515625 C 9.351562 -0.972656 8.785156 -0.5625 8.109375 -0.28125 C 7.441406 0 6.703125 0.140625 5.890625 0.140625 Z M 5.890625 0.140625 "/></g></g></g><g fill="#737373" fill-opacity="1"><g transform="translate(261.775644, 336.685898)"><g><path d="M 7.71875 -2.28125 L 2.796875 -2.28125 L 1.8125 0 L -0.078125 0 L 4.375 -9.859375 L 6.171875 -9.859375 L 10.625 0 L 8.703125 0 Z M 7.125 -3.71875 L 5.25 -8.03125 L 3.40625 -3.71875 Z M 7.125 -3.71875 "/></g></g></g></svg>